<svg xmlns="http://www.w3.org/2000/svg" width="45" height="43" viewBox="0 0 45 43">
    <path fill="#3467FF" fill-rule="evenodd" d="M22.26 28.138l6.2-6.114a5.492 5.492 0 0 0 1.053-6.405l-.351-.693a5.492 5.492 0 0 1 1.053-6.405l7.686-7.58a1.42 1.42 0 0 1 1.99 0c.106.105.195.226.263.36l3.105 6.125c2.375 4.686 1.444 10.345-2.312 14.05L24.075 38.118c-4.088 4.032-10.135 5.44-15.62 3.637l-6.79-2.233a1.383 1.383 0 0 1-.89-1.755c.07-.204.186-.39.34-.542l7.457-7.355a5.683 5.683 0 0 1 6.493-1.04l.702.347a5.683 5.683 0 0 0 6.494-1.04z"/>
</svg>
