<svg xmlns="http://www.w3.org/2000/svg" width="43" height="41" viewBox="0 0 43 41">
    <g fill="#3467FF" fill-rule="evenodd">
        <path d="M7.178 0h28.644a2.4 2.4 0 0 1 2.4 2.4v21.73a2.4 2.4 0 0 1-2.4 2.4H7.178a2.4 2.4 0 0 1-2.4-2.4V2.4a2.4 2.4 0 0 1 2.4-2.4zm3.583 7.235a1.206 1.206 0 0 0 0 2.412h14.31a1.206 1.206 0 1 0 0-2.412h-14.31zm0 4.824a1.206 1.206 0 0 0 0 2.412h7.144a1.206 1.206 0 0 0 0-2.412h-7.144z" opacity=".3"/>
        <path d="M1.907 11.038L21.5 25.324l19.593-14.286a1.2 1.2 0 0 1 1.907.97V36.2a4.8 4.8 0 0 1-4.8 4.8H4.8A4.8 4.8 0 0 1 0 36.2V12.007a1.2 1.2 0 0 1 1.907-.97z"/>
    </g>
</svg>
