<svg xmlns="http://www.w3.org/2000/svg" width="24" height="27" viewBox="0 0 24 27">
    <g fill="#3467FF" fill-rule="evenodd">
        <path d="M0 9.262l10.32 5.959c.112.064.228.11.347.14v11.556L.737 21.04A1.5 1.5 0 0 1 0 19.749V9.262zm24-.158v10.645a1.5 1.5 0 0 1-.736 1.29l-9.93 5.878V15.259l.071-.038L24 9.104z"/>
        <path d="M.324 6.37c.126-.16.285-.294.47-.392l10.5-5.593a1.5 1.5 0 0 1 1.411 0l10.5 5.593c.143.076.27.173.379.287L12.072 12.91a1.34 1.34 0 0 0-.21.15 1.34 1.34 0 0 0-.208-.15L.324 6.37z" opacity=".3"/>
    </g>
</svg>
