<svg xmlns="http://www.w3.org/2000/svg" width="29" height="30" viewBox="0 0 29 30">
    <g fill="#3467FF" fill-rule="evenodd">
        <path fill-rule="nonzero" d="M.558 16.944c0-.694.697-1.388 1.394-1.388s1.394.694 1.394 1.388v6.945a2.783 2.783 0 0 0 2.789 2.778h16.73a2.783 2.783 0 0 0 2.789-2.778v-6.945c0-.767.624-1.388 1.394-1.388.77 0 1.394.621 1.394 1.388v6.945c0 3.068-2.497 5.555-5.577 5.555H6.135c-3.08 0-5.577-2.487-5.577-5.555v-6.945z" opacity=".3"/>
        <rect width="2.788" height="19.444" x="13.106" y=".278" opacity=".3" rx="1.394" transform="rotate(-180 14.5 10)"/>
        <path fill-rule="nonzero" d="M20.485 11.796a1.398 1.398 0 0 1 1.972 0 1.385 1.385 0 0 1 0 1.964l-6.971 6.944a1.398 1.398 0 0 1-1.919.05l-6.97-6.25a1.385 1.385 0 0 1-.104-1.96 1.398 1.398 0 0 1 1.969-.104l5.987 5.368 6.036-6.012z"/>
    </g>
</svg>
