<svg xmlns="http://www.w3.org/2000/svg" width="28" height="24" viewBox="0 0 28 24">
    <g fill="#3467FF" fill-rule="evenodd">
        <path d="M18.455 15.956v-4.537a3.84 3.84 0 0 0-3.84-3.84H5.933V3.19C5.933 1.43 7.373 0 9.15 0h15.004c1.776 0 3.216 1.429 3.216 3.191v9.574l.02 5.9a.64.64 0 0 1-1.09.457l-3.19-3.166h-4.654z"/>
        <path d="M.617 18.947v-6.315a2.536 2.536 0 0 1 2.546-2.527h10.182a2.536 2.536 0 0 1 2.545 2.527v6.315a2.536 2.536 0 0 1-2.545 2.527H3.31l-1.579 1.5a.64.64 0 0 1-1.08-.465v-3.152a2.526 2.526 0 0 1-.034-.41zm5.742-5.052a.632.632 0 0 0 0 1.263h6.373a.632.632 0 1 0 0-1.263H6.36zm3.818 2.526a.632.632 0 0 0 0 1.263h2.555a.632.632 0 1 0 0-1.263h-2.555z" opacity=".3"/>
    </g>
</svg>
