<svg xmlns="http://www.w3.org/2000/svg" width="25" height="23" viewBox="0 0 25 23">
    <path fill="#202030" fill-rule="evenodd" d="M22.813 13.684c-.115.544-.445.816-.989.816H9.234l.258 1.375h11.559c.315 0 .573.129.773.387.2.258.272.544.215.86l-.258 1.073c.917.43 1.375 1.146 1.375 2.149 0 .659-.236 1.224-.709 1.697a2.316 2.316 0 0 1-1.697.709 2.316 2.316 0 0 1-1.697-.709 2.316 2.316 0 0 1-.71-1.697c0-.688.244-1.26.731-1.719h-9.023c.487.458.73 1.031.73 1.719 0 .659-.236 1.224-.709 1.697a2.316 2.316 0 0 1-1.697.709 2.316 2.316 0 0 1-1.697-.709 2.316 2.316 0 0 1-.71-1.697c0-.917.402-1.619 1.204-2.106L4.164 3.5H1.156c-.286 0-.53-.1-.73-.3-.2-.201-.301-.445-.301-.731V1.78c0-.286.1-.53.3-.73C.627.85.87.75 1.157.75h4.426a.94.94 0 0 1 .623.236c.186.158.308.351.365.58L6.957 3.5h16.887a.98.98 0 0 1 .816.387c.2.258.258.544.172.86l-2.02 8.937z"/>
</svg>
